<mxfile host="app.diagrams.net" agent="Mozilla/5.0 (Macintosh; Intel Mac OS X 10_15_7) AppleWebKit/537.36 (KHTML, like Gecko) Chrome/133.0.0.0 Safari/537.36" version="26.0.16">
  <diagram id="3228e29e-7158-1315-38df-8450db1d8a1d" name="Page-1">
    <mxGraphModel dx="1837" dy="1171" grid="1" gridSize="10" guides="1" tooltips="1" connect="1" arrows="1" fold="1" page="1" pageScale="1" pageWidth="1169" pageHeight="827" background="none" math="0" shadow="0">
      <root>
        <mxCell id="0" />
        <mxCell id="1" parent="0" />
        <mxCell id="21531" value="" style="ellipse;fillColor=#F08705;opacity=60;strokeColor=none;html=1;fontColor=#FFFFFF;" parent="1" vertex="1">
          <mxGeometry x="150" y="40" width="720" height="710" as="geometry" />
        </mxCell>
        <mxCell id="VKkT1QGF7h_X4RJg7_9a-21540" value="" style="group" vertex="1" connectable="0" parent="1">
          <mxGeometry x="470" y="70" width="500" height="740" as="geometry" />
        </mxCell>
        <mxCell id="21532" value="" style="ellipse;fillColor=#ffe6cc;opacity=60;strokeColor=#d79b00;html=1;movable=1;resizable=1;rotatable=1;deletable=1;editable=1;locked=0;connectable=1;" parent="VKkT1QGF7h_X4RJg7_9a-21540" vertex="1">
          <mxGeometry x="-210" y="120" width="500" height="500" as="geometry" />
        </mxCell>
        <mxCell id="21533" value="&lt;font style=&quot;font-size: 48px;&quot;&gt;混合logit&lt;/font&gt;" style="ellipse;opacity=60;html=1;fillColor=#f5f5f5;fontColor=#333333;strokeColor=#666666;" parent="VKkT1QGF7h_X4RJg7_9a-21540" vertex="1">
          <mxGeometry x="-115" y="280" width="310" height="305" as="geometry" />
        </mxCell>
        <mxCell id="VKkT1QGF7h_X4RJg7_9a-21541" value="&lt;span style=&quot;font-size: 48px;&quot;&gt;随机效用模型&lt;/span&gt;" style="text;html=1;align=center;verticalAlign=middle;resizable=0;points=[];autosize=1;strokeColor=none;fillColor=none;" vertex="1" parent="VKkT1QGF7h_X4RJg7_9a-21540">
          <mxGeometry x="-120" y="180" width="310" height="70" as="geometry" />
        </mxCell>
        <mxCell id="VKkT1QGF7h_X4RJg7_9a-21542" value="&lt;span style=&quot;font-size: 48px;&quot;&gt;离散选择模型&lt;/span&gt;" style="text;html=1;align=center;verticalAlign=middle;resizable=0;points=[];autosize=1;strokeColor=none;fillColor=none;" vertex="1" parent="VKkT1QGF7h_X4RJg7_9a-21540">
          <mxGeometry x="-120" y="40" width="310" height="70" as="geometry" />
        </mxCell>
      </root>
    </mxGraphModel>
  </diagram>
</mxfile>
